# xmcd CD database file
#
# Track frame offsets:
#	183
#	12123
#	32515
#	47300
#	58605
#	70188
#	83898
#	103618
#	115260
#	130755
#	142348
#	153488
#	165473
#	178283
#
# Disc length: 2566 seconds
#
# Revision: 0
# Processed by: cddbd v1.5.2PL0 Copyright (c) Steve Scherf et al.
# Submitted via: CDex 1.70beta2
#
DISCID=b60a040e
DTITLE=Various Artist - Streetlove
DYEAR=1900
DGENRE=Blues
TTITLE0=John Lee Hooker - I'm In The Mood
TTITLE1=Ella Fitzgerald and Louis Armstrong - A Foggy Day
TTITLE2=Roy Orbison - Oh, Such A Stranger
TTITLE3=Lou Rawls - I'm Gonna Use What I Got
TTITLE4=Wilson Pickett - If You Need Me
TTITLE5=The Shirelles - Maybe Tonight
TTITLE6=James Brown - You Cn't Keep A Good Man Down
TTITLE7=Sarah Vaughan - Whatever Lola Wants
TTITLE8=Dina Whashington - T'ain't Nobody's Biz-ness If I Do
TTITLE9=Nina Simone - I Put A Spell On You
TTITLE10=Little Anthony& The Imperials - Going Out Of My Head
TTITLE11=Gladys Knight and The Pips - Love Me Again
TTITLE12=The Dells - Oh What A Night
TTITLE13=The Shangri-las - I Can Never Go Home Anymore
EXTD=
EXTT0=
EXTT1=
EXTT2=
EXTT3=
EXTT4=
EXTT5=
EXTT6=
EXTT7=
EXTT8=
EXTT9=
EXTT10=
EXTT11=
EXTT12=
EXTT13=
PLAYORDER=
